<?xml version="1.0" encoding="UTF-8"?>
<svg id="Layer_1" data-name="Layer 1" xmlns="http://www.w3.org/2000/svg" viewBox="0 0 401.39 315.11">
  <defs>
    <style>
      .cls-1 {
        fill: #919395;
      }

      .cls-2 {
        fill: #a8c538;
      }

      .cls-3, .cls-4 {
        fill: #2591b2;
      }

      .cls-4 {
        opacity: .6;
      }

      .cls-5 {
        fill: #87a73e;
      }
    </style>
  </defs>
  <rect class="cls-1" x="200.65" y="172.06" width="144" height="3.6"/>
  <g>
    <rect class="cls-5" x="171.82" y="56.69" width="28.86" height="115.37"/>
    <path class="cls-2" d="M171.82,114.37c-9.58-19.2-19.16-38.4-28.73-57.61h-28.79c-19.21,38.43-38.43,76.87-57.64,115.3h115.17v-57.69ZM128.55,98.31c7.74,15.57,15.47,31.14,23.21,46.72h-46.78l23.57-46.72Z"/>
  </g>
  <g>
    <path class="cls-1" d="M242.9,130.73l-3.41-2.13c-2.75-1.74-3.32-3.02-3.32-4.41,0-.86,0-3.5,5.44-3.5,1.22,0,2.68.12,4.61.37l1.14.15v-6.16l-.88-.11c-2.17-.27-3.67-.39-5.01-.39-7.45,0-11.9,3.63-11.9,9.72,0,3.82,1.93,6.93,5.92,9.52l3.74,2.37c3.16,2.01,3.8,3.49,3.8,5.22,0,1.85-.65,4.3-6.29,4.3-1.62,0-3.52-.1-5.97-.33l-1.1-.1v6.31l.9.1c2.44.27,4.37.38,6.27.38,8.05,0,12.85-4.01,12.85-10.72,0-4.29-2.15-7.66-6.78-10.61Z"/>
    <polygon class="cls-1" points="260.3 145.41 260.3 114.95 253.74 114.95 253.74 151.69 273.66 151.69 273.66 145.41 260.3 145.41"/>
    <path class="cls-1" d="M294.31,114.95h-5.84l-12.58,36.74h6.87l2.42-7.3h12.47l2.42,7.3h6.92l-12.68-36.74ZM295.61,138.35h-8.45l4.21-12.79,4.24,12.79Z"/>
    <rect class="cls-1" x="309.65" y="114.95" width="6.56" height="36.74"/>
    <polygon class="cls-1" points="342.66 121.22 342.66 114.95 322.73 114.95 322.73 151.69 329.29 151.69 329.29 136.05 342.27 136.05 342.27 129.78 329.29 129.78 329.29 121.22 342.66 121.22"/>
  </g>
  <g>
    <rect class="cls-3" x="113.09" y="254.81" width="31.51" height="3.6"/>
    <rect class="cls-4" x="171.82" y="254.81" width="28.83" height="3.6"/>
    <rect class="cls-3" x="172.67" y="233.22" width="27.99" height="3.6"/>
    <rect class="cls-3" x="171.82" y="226.63" width="28.83" height="3.6"/>
    <rect class="cls-3" x="171.78" y="247.62" width="24.68" height="3.6"/>
    <rect class="cls-4" x="175.98" y="240.42" width="24.68" height="3.6"/>
    <rect class="cls-4" x="109.28" y="247.62" width="42.7" height="3.6"/>
    <rect class="cls-3" x="100.2" y="240.42" width="52.11" height="3.6"/>
    <rect class="cls-4" x="114.41" y="233.22" width="45.37" height="3.6"/>
    <rect class="cls-3" x="94.74" y="233.22" width="16.07" height="3.6"/>
    <rect class="cls-3" x="92.15" y="226.63" width="33.8" height="3.6"/>
    <rect class="cls-3" x="135.48" y="226.63" width="28.96" height="3.6"/>
    <rect class="cls-3" x="85.36" y="218.81" width="36.17" height="3.6"/>
    <rect class="cls-3" x="133.53" y="218.81" width="36.17" height="3.6"/>
    <rect class="cls-3" x="175.68" y="218.81" width="24.98" height="3.6"/>
    <rect class="cls-3" x="81.21" y="211.61" width="36.98" height="3.6"/>
    <rect class="cls-3" x="80.06" y="204.41" width="32.65" height="3.6"/>
    <rect class="cls-3" x="143.28" y="204.41" width="27.26" height="3.6"/>
    <rect class="cls-3" x="174.2" y="204.41" width="26.59" height="3.6"/>
    <rect class="cls-4" x="144.56" y="211.28" width="53.3" height="3.6"/>
    <rect class="cls-4" x="74.34" y="197.26" width="38.38" height="3.6"/>
    <rect class="cls-3" x="151.55" y="197.26" width="43.38" height="3.6"/>
    <rect class="cls-3" x="67.76" y="190.06" width="37.44" height="3.6"/>
    <rect class="cls-3" x="108.81" y="190.06" width="44.65" height="3.6"/>
    <rect class="cls-3" x="157.11" y="190.06" width="43.55" height="3.6"/>
    <rect class="cls-3" x="68.87" y="182.86" width="57.5" height="3.6"/>
    <rect class="cls-4" x="130.01" y="182.86" width="32.78" height="3.6"/>
    <rect class="cls-3" x="166.39" y="182.86" width="31.84" height="3.6"/>
    <rect class="cls-3" x="56.65" y="175.67" width="56.06" height="3.63"/>
    <rect class="cls-3" x="116.35" y="175.67" width="84.3" height="3.63"/>
  </g>
  <g>
    <path class="cls-1" d="M229.73,215.39v-2.27c1.37.12,2.37.17,3.19.17,2.57,0,3.84-.92,3.84-2.79,0-1.25-.6-2.15-2.25-3.19l-1.97-1.25c-1.92-1.25-2.87-2.72-2.87-4.57,0-2.87,2.12-4.59,5.74-4.59.75,0,1.57.07,2.57.2v2.17c-.95-.12-1.77-.2-2.49-.2-2.25,0-3.39.82-3.39,2.37,0,1.07.57,1.87,2,2.77l1.8,1.12c2.27,1.45,3.32,3.07,3.32,5.14,0,3.24-2.3,5.11-6.24,5.11-.9,0-1.87-.05-3.24-.2Z"/>
    <path class="cls-1" d="M242.81,196.15h2.3v19.23h-2.3v-19.23Z"/>
    <path class="cls-1" d="M248.8,208.83c0-3.99,2.94-6.91,6.79-6.91s6.76,2.92,6.76,6.91-2.94,6.86-6.76,6.86-6.79-2.89-6.79-6.86ZM255.59,213.52c2.54,0,4.44-1.97,4.44-4.69s-1.9-4.74-4.44-4.74-4.49,1.97-4.49,4.74,1.92,4.69,4.49,4.69Z"/>
    <path class="cls-1" d="M264.1,202.21h2.52l3.72,10.1,3.72-10.1h2.4l-5.04,13.17h-2.22l-5.09-13.17Z"/>
    <path class="cls-1" d="M278.23,208.85c0-3.94,2.79-6.89,6.61-6.89,3.34,0,6.34,2.27,6.26,7.13h-10.73c.12,2.59,1.92,4.52,4.64,4.52,1.92,0,3.49-.95,4.47-2.54l1.6,1.17c-1.15,1.8-3.14,3.39-6.09,3.39-4.04,0-6.76-2.92-6.76-6.79ZM288.85,207.38c-.42-2.35-2.07-3.47-4.04-3.47-2.22,0-3.84,1.47-4.32,3.47h8.36Z"/>
    <path class="cls-1" d="M299.89,201.91c3.24,0,5.19,2.07,5.19,5.56v7.91h-2.3v-7.83c0-2.25-1.02-3.47-2.89-3.47s-2.92,1.22-2.92,3.47v7.83h-2.29v-7.91c0-3.49,1.92-5.56,5.21-5.56Z"/>
    <path class="cls-1" d="M309.4,196.15h2.3v3.69h-2.3v-3.69ZM309.4,202.21h2.3v13.17h-2.3v-13.17Z"/>
    <path class="cls-1" d="M315.39,208.8c0-4.02,2.92-6.84,6.54-6.84,1.97,0,3.74.85,4.67,2.25l.02-2h2.07v13.17h-2.07l-.02-2c-.92,1.4-2.69,2.25-4.67,2.25-3.62,0-6.54-2.82-6.54-6.84ZM322.18,213.49c2.42,0,4.39-1.67,4.39-4.69s-1.97-4.71-4.39-4.71c-2.57,0-4.49,1.95-4.49,4.71s1.92,4.69,4.49,4.69Z"/>
    <path class="cls-1" d="M338.2,201.91c3.24,0,5.19,2.07,5.19,5.56v7.91h-2.3v-7.83c0-2.25-1.02-3.47-2.89-3.47s-2.92,1.22-2.92,3.47v7.83h-2.29v-7.91c0-3.49,1.92-5.56,5.21-5.56Z"/>
    <path class="cls-1" d="M235.12,221.1h2.32l6.31,18.29h-2.52l-1.27-3.84h-7.33l-1.27,3.84h-2.49l6.26-18.29ZM239.23,233.42l-2.97-8.96-2.94,8.96h5.91Z"/>
    <path class="cls-1" d="M246.42,221.1h2.4v18.29h-2.4v-18.29Z"/>
    <path class="cls-1" d="M265.15,221.1h9.43v2.25h-7.04v5.56h6.84v2.25h-6.84v8.23h-2.4v-18.29Z"/>
    <path class="cls-1" d="M276.35,232.8c0-4.02,2.92-6.84,6.54-6.84,1.97,0,3.74.85,4.67,2.25l.02-2h2.07v13.17h-2.07l-.02-2c-.92,1.4-2.69,2.25-4.67,2.25-3.62,0-6.54-2.82-6.54-6.84ZM283.14,237.49c2.42,0,4.39-1.67,4.39-4.69s-1.97-4.71-4.39-4.71c-2.57,0-4.49,1.95-4.49,4.71s1.92,4.69,4.49,4.69Z"/>
    <path class="cls-1" d="M292.27,232.83c0-3.99,2.82-6.76,6.76-6.76.62,0,1.35.05,2.12.17v2.12c-.77-.12-1.42-.17-1.87-.17-2.87,0-4.72,1.92-4.72,4.64s1.85,4.59,4.72,4.59c.45,0,1.1-.05,1.87-.15v2.12c-.77.12-1.5.17-2.12.17-3.94,0-6.76-2.77-6.76-6.74Z"/>
    <path class="cls-1" d="M304.44,228.31h-1.6v-2.1h1.6v-3.64l2.3-.85v4.49h1.7v2.1h-1.7v11.08h-2.3v-11.08Z"/>
    <path class="cls-1" d="M309.88,232.83c0-3.99,2.94-6.91,6.79-6.91s6.76,2.92,6.76,6.91-2.94,6.86-6.76,6.86-6.79-2.89-6.79-6.86ZM316.67,237.52c2.54,0,4.44-1.97,4.44-4.69s-1.9-4.74-4.44-4.74-4.49,1.97-4.49,4.74,1.92,4.69,4.49,4.69Z"/>
    <path class="cls-1" d="M330.02,226.21h1.47v2.1h-1.27c-1.4,0-1.97.52-1.97,2.02v9.06h-2.3v-9.03c0-2.84,1.35-4.14,4.07-4.14Z"/>
    <path class="cls-1" d="M337.4,238.69l-5.39-12.47h2.57l4.02,9.73,3.72-9.73h2.42l-7.19,18.11h-2.42l2.27-5.64Z"/>
  </g>
</svg>